<svg xmlns="http://www.w3.org/2000/svg" viewBox="0 0 64 64" fill="none">
  <!-- Banana background/curve -->
  <path d="M14 46C20 32 32 20 48 16C44 22 36 34 26 48C22 50 17 49 14 46Z" fill="#FBC02D"/>
  <path d="M48 16C50 14 52 14 52 14C52 14 50 18 48 20" stroke="#F57F17" stroke-width="2.5" stroke-linecap="round"/>
  <!-- Apple -->
  <path d="M30 48C24 48 19 43 19 37C19 31 23 27 29 27C32 27 34 29 35 31C36 29 38 27 41 27C47 27 51 31 51 37C51 43 47 48 41 48C37 48 35 46 35 46C35 46 33 48 30 48Z" fill="#E53935"/>
  <!-- Apple leaf -->
  <path d="M35 27C35 23 37 19 41 19C41 23 39 27 35 27Z" fill="#4CAF50"/>
  <!-- Grapes -->
  <circle cx="20" cy="38" r="5" fill="#7B1FA2"/>
  <circle cx="25" cy="42" r="5" fill="#8E24AA"/>
  <circle cx="16" cy="43" r="4.5" fill="#8E24AA"/>
  <circle cx="21" cy="47" r="4" fill="#6A1B9A"/>
  <!-- Apple highlight -->
  <ellipse cx="26" cy="33" rx="2" ry="4" fill="#FFCDD2" opacity="0.6" transform="rotate(-30 26 33)"/>
</svg>
