<svg xmlns="http://www.w3.org/2000/svg" viewBox="0 0 64 64" fill="none">
  <!-- Sack body -->
  <path d="M18 36C18 30 22 26 32 26C42 26 46 30 46 36C46 44 42 54 32 54C22 54 18 44 18 36Z" fill="#BCAAA4"/>
  <path d="M18 36C18 30 22 26 32 26C35 26 38 27 38 27C35 34 35 48 32 54C22 54 18 44 18 36Z" fill="#8D6E63" opacity="0.25"/>
  <!-- Sack neck tie -->
  <path d="M24 30C28 32 36 32 40 30" stroke="#5D4037" stroke-width="3" stroke-linecap="round"/>
  <!-- Sack rim -->
  <ellipse cx="32" cy="26" rx="10" ry="3" fill="#8D6E63"/>
  <!-- Overflowing grains -->
  <ellipse cx="32" cy="24" rx="8" ry="4" fill="#FFB74D"/>
  <circle cx="28" cy="23" r="2" fill="#FFA726"/>
  <circle cx="34" cy="22" r="2.5" fill="#FFE082"/>
  <circle cx="31" cy="21" r="1.5" fill="#FFB74D"/>

  <!-- Wheat stalk 1 left slanted -->
  <path d="M26 32L10 10" stroke="#FFB74D" stroke-width="2" stroke-linecap="round"/>
  <ellipse cx="14" cy="16" rx="2.5" ry="5" transform="rotate(-30 14 16)" fill="#FFA726"/>
  <ellipse cx="18" cy="20" rx="2.5" ry="5" transform="rotate(-30 18 20)" fill="#FFB74D"/>
  <ellipse cx="11" cy="22" rx="2.5" ry="5" transform="rotate(30 11 22)" fill="#FFA726"/>
  <ellipse cx="15" cy="26" rx="2.5" ry="5" transform="rotate(30 15 26)" fill="#FFB74D"/>

  <!-- Wheat stalk 2 right slanted -->
  <path d="M38 32L54 10" stroke="#FFB74D" stroke-width="2" stroke-linecap="round"/>
  <ellipse cx="50" cy="16" rx="2.5" ry="5" transform="rotate(30 50 16)" fill="#FFA726"/>
  <ellipse cx="46" cy="20" rx="2.5" ry="5" transform="rotate(30 46 20)" fill="#FFB74D"/>
  <ellipse cx="53" cy="22" rx="2.5" ry="5" transform="rotate(-30 53 22)" fill="#FFA726"/>
  <ellipse cx="49" cy="26" rx="2.5" ry="5" transform="rotate(-30 49 26)" fill="#FFB74D"/>
</svg>
