<svg xmlns="http://www.w3.org/2000/svg" viewBox="0 0 64 64" fill="none">
  <!-- Shopping bag (kraft paper color) -->
  <path d="M18 28L20 52C20 54 22 56 24 56H40C42 56 44 54 44 52L46 28H18Z" fill="#D7CCC8"/>
  <path d="M18 28L20 52C20 54 22 56 24 56H32V28H18Z" fill="#BCAAA4" opacity="0.5"/>
  <!-- Bag handles -->
  <path d="M26 28V24C26 20 28 18 32 18C36 18 38 20 38 24V28" stroke="#8D6E63" stroke-width="2.5" stroke-linecap="round"/>

  <!-- Overflowing items -->
  <!-- Carrot top -->
  <path d="M22 28L25 20" stroke="#FF7043" stroke-width="4" stroke-linecap="round"/>
  <path d="M25 20C27 18 29 18 29 18" stroke="#4CAF50" stroke-width="2" stroke-linecap="round"/>
  <!-- Apple top -->
  <circle cx="32" cy="24" r="5.5" fill="#E53935"/>
  <path d="M32 18C33 16 35 16 35 16" stroke="#4CAF50" stroke-width="1.5"/>
  <!-- Milk bottle neck -->
  <rect x="37" y="20" width="6" height="8" rx="1" fill="#E3F2FD"/>
  <rect x="36" y="18" width="8" height="2" fill="#42A5F5"/>
</svg>
