<svg xmlns="http://www.w3.org/2000/svg" viewBox="0 0 64 64" fill="none">
  <!-- Chicken drumstick behind -->
  <path d="M22 28L10 40C8 42 8 45 10 47C12 49 15 49 17 47L29 35" stroke="#CFD8DC" stroke-width="6" stroke-linecap="round"/>
  <circle cx="9" cy="42" r="3.5" fill="#CFD8DC"/>
  <circle cx="12" cy="45" r="3.5" fill="#CFD8DC"/>
  <path d="M22 28C20 22 24 14 32 14C40 14 44 20 40 28C36 32 28 32 22 28Z" fill="#FFB74D"/>
  <path d="M22 28C20 22 24 14 32 14C34 14 36 18 36 24C34 28 28 30 22 28Z" fill="#F57C00" opacity="0.35"/>

  <!-- Steak front -->
  <path d="M22 46C20 40 22 34 28 32C38 28 52 30 52 40C52 48 46 52 36 52C28 52 24 50 22 46Z" fill="#C62828"/>
  <!-- Steak Marbling (white fat border/lines) -->
  <path d="M22 46C20 40 22 34 28 32C38 28 52 30 52 40" stroke="#ECEFF1" stroke-width="2.5" fill="none"/>
  <path d="M30 38C34 36 40 37 44 40" stroke="#ECEFF1" stroke-width="1.5" stroke-linecap="round"/>
  <path d="M28 44C32 43 36 44 38 46" stroke="#ECEFF1" stroke-width="1.5" stroke-linecap="round"/>
  <!-- T-bone or round bone -->
  <circle cx="44" cy="44" r="4.5" fill="white"/>
  <circle cx="44" cy="44" r="2" fill="#C62828"/>
</svg>
