<svg xmlns="http://www.w3.org/2000/svg" viewBox="0 0 64 64" fill="none">
  <!-- Milk Carton -->
  <path d="M16 26L22 16L32 16L38 26L38 52C38 54 36 56 34 56L20 56C18 56 16 54 16 52V26Z" fill="#F5F5F5"/>
  <path d="M16 26L22 16L32 16L32 56L20 56C18 56 16 54 16 52V26Z" fill="#E0E0E0" opacity="0.5"/>
  <!-- Carton Top Fold -->
  <path d="M22 16L27 10L32 16H22Z" fill="#BBDEFB"/>
  <path d="M27 10L32 16L37 16L32 10" fill="#90CAF9"/>
  <!-- Carton Label/Blue stripe -->
  <rect x="16" y="32" width="22" height="10" fill="#42A5F5"/>
  <rect x="16" y="32" width="16" height="10" fill="#1E88E5" opacity="0.3"/>
  <path d="M27 34C25 36 25 38 27 40" stroke="white" stroke-width="1.5" stroke-linecap="round"/>

  <!-- Cheese Wedge -->
  <path d="M30 48L52 38C54 37 56 39 56 42V50C56 52 54 54 52 54H34C32 54 30 52 30 50V48Z" fill="#FFCA28"/>
  <path d="M30 48L52 38L52 54H34C32 54 30 52 30 50V48Z" fill="#FFB300" opacity="0.3"/>
  <!-- Cheese Holes -->
  <circle cx="36" cy="50" r="2" fill="#FF8F00"/>
  <circle cx="44" cy="46" r="3" fill="#FF8F00"/>
  <circle cx="48" cy="51" r="1.5" fill="#FF8F00"/>
  <circle cx="51" cy="43" r="2" fill="#FF8F00"/>
</svg>
