<svg xmlns="http://www.w3.org/2000/svg" viewBox="0 0 64 64" fill="none">
  <!-- Cardboard tray -->
  <path d="M14 42C14 42 16 38 22 38C28 38 30 42 32 42C34 42 36 38 42 38C48 38 50 42 50 42L48 50C48 52 46 54 44 54H20C18 54 16 52 16 50L14 42Z" fill="#D7CCC8"/>
  <path d="M14 42C14 42 16 38 22 38C28 38 30 42 32 42C32 42 32 50 32 54H20C18 54 16 52 16 50L14 42Z" fill="#BCAAA4" opacity="0.5"/>

  <!-- Left Egg (Brown) -->
  <path d="M22 22C17 22 14 30 14 36C14 42 18 44 22 44C26 44 30 42 30 36C30 30 27 22 22 22Z" fill="#FFE0B2"/>
  <path d="M22 22C17 22 14 30 14 36C14 38 15 41 17 42" stroke="#FFCC80" stroke-width="1" fill="none"/>
  <!-- Highlight -->
  <ellipse cx="19" cy="30" rx="1.5" ry="3.5" fill="white" opacity="0.4" transform="rotate(-15 19 30)"/>

  <!-- Right Egg (White) -->
  <path d="M42 22C37 22 34 30 34 36C34 42 38 44 42 44C46 44 50 42 50 36C50 30 47 22 42 22Z" fill="#FFFFFF"/>
  <path d="M42 22C37 22 34 30 34 36C34 42 38 44 42 44C46 44 50 42 50 36C50 30 47 22 42 22Z" stroke="#ECEFF1" stroke-width="1.5" fill="none"/>
  <!-- Highlight -->
  <ellipse cx="39" cy="30" rx="1.5" ry="3.5" fill="#ECEFF1" opacity="0.8" transform="rotate(-15 39 30)"/>

  <!-- Center Front Egg (Cream/Light Brown) -->
  <path d="M32 28C28 28 25 34 25 40C25 46 28 48 32 48C36 48 39 46 39 40C39 34 36 28 32 28Z" fill="#FFECB3"/>
  <!-- Highlight -->
  <ellipse cx="29" cy="35" rx="1.5" ry="3.5" fill="white" opacity="0.5" transform="rotate(-15 29 35)"/>
</svg>
