<svg xmlns="http://www.w3.org/2000/svg" viewBox="0 0 120 120" fill="none">
  <!-- Delivery truck body -->
  <rect x="10" y="50" width="60" height="36" rx="4" fill="#43A047"/>
  <rect x="10" y="50" width="60" height="36" rx="4" stroke="#2E7D32" stroke-width="1.5"/>
  <!-- Cabin -->
  <path d="M70 56L85 56L95 70L95 86L70 86Z" fill="#66BB6A"/>
  <path d="M70 56L85 56L95 70L95 86L70 86Z" stroke="#2E7D32" stroke-width="1.5"/>
  <!-- Windshield -->
  <path d="M74 60L83 60L90 70L74 70Z" fill="#E3F2FD"/>
  <!-- Wheels -->
  <circle cx="30" cy="90" r="8" fill="#424242"/>
  <circle cx="30" cy="90" r="4" fill="#757575"/>
  <circle cx="85" cy="90" r="8" fill="#424242"/>
  <circle cx="85" cy="90" r="4" fill="#757575"/>
  <!-- Leaf on truck -->
  <path d="M40 60C40 60 36 54 32 52C36 52 38 56 40 60Z" fill="#A5D6A7"/>
  <path d="M40 60C40 60 44 54 48 52C44 52 42 56 40 60Z" fill="#81C784"/>
  <!-- Package box -->
  <rect x="34" y="30" width="22" height="22" rx="3" fill="#FFCC80"/>
  <rect x="34" y="30" width="22" height="22" rx="3" stroke="#FFB74D" stroke-width="1.5"/>
  <line x1="45" y1="30" x2="45" y2="52" stroke="#FFB74D" stroke-width="1.5"/>
  <line x1="34" y1="41" x2="56" y2="41" stroke="#FFB74D" stroke-width="1.5"/>
</svg>
